<svg width="512" height="512" viewBox="0 0 512 512" fill="none" xmlns="http://www.w3.org/2000/svg">
<rect width="512" height="512" fill="#000000" rx="20"/>
<svg x="128" y="128" width="256" height="256" viewBox="0 0 256 256" fill="none">
  <!-- Sun outline -->
  <circle cx="128" cy="128" r="40" fill="none" stroke="#FF6600" stroke-width="8"/>
  <!-- Sun rays -->
  <line x1="128" y1="32" x2="128" y2="64" stroke="#FF6600" stroke-width="6" stroke-linecap="round"/>
  <line x1="128" y1="192" x2="128" y2="224" stroke="#FF6600" stroke-width="6" stroke-linecap="round"/>
  <line x1="224" y1="128" x2="192" y2="128" stroke="#FF6600" stroke-width="6" stroke-linecap="round"/>
  <line x1="64" y1="128" x2="32" y2="128" stroke="#FF6600" stroke-width="6" stroke-linecap="round"/>
  <line x1="190.06" y1="65.94" x2="167.41" y2="88.59" stroke="#FF6600" stroke-width="6" stroke-linecap="round"/>
  <line x1="88.59" y1="167.41" x2="65.94" y2="190.06" stroke="#FF6600" stroke-width="6" stroke-linecap="round"/>
  <line x1="167.41" y1="167.41" x2="190.06" y2="190.06" stroke="#FF6600" stroke-width="6" stroke-linecap="round"/>
  <line x1="65.94" y1="88.59" x2="88.59" y2="65.94" stroke="#FF6600" stroke-width="6" stroke-linecap="round"/>
</svg>
<svg x="200" y="300" width="100" height="100" viewBox="0 0 100 100" fill="none">
  <!-- AR grid -->
  <rect x="10" y="10" width="80" height="80" fill="none" stroke="#FF6600" stroke-width="2" stroke-dasharray="5 5"/>
  <path d="M30 20L30 40M50 20L50 40M70 20L70 40" stroke="#FF6600" stroke-width="1" opacity="0.5"/>
</svg>
<text x="256" y="450" text-anchor="middle" fill="#FF6600" font-family="Arial, sans-serif" font-size="32" font-weight="bold">SunSetter</text>
</svg>
